# xmcd CD database file generated by Grip 3.0.4
# 
# Track frame offsets:
#       182
#       11375
#       21872
#       31427
#       42187
#       52457
#       61537
#       71497
#       80720
#       90697
#       99490
#       109770
#       120750
#       134475
# 
# Disc length: 1945 seconds
# 
# Revision: 6
# Processed by: cddbd v1.4PL0 Copyright (c) Steve Scherf et al.
# Submitted via: Grip 3.0.4
# 
DISCID=b307970e
DTITLE=Little Richard - Slippin', Slidin' an' Shakin'
DYEAR=1992
DGENRE=Rock and Roll
TTITLE0=Whole Lotta Shakin' Goin' On
TTITLE1=Money Honey
TTITLE2=Good Golly Miss Molly
TTITLE3=Trutti Frutti
TTITLE4=Lucille
TTITLE5=Rip It Up
TTITLE6=She's Got It
TTITLE7=Lang Tall Sally
TTITLE8=Keep A Knockin'
TTITLE9=Jenny Jenny
TTITLE10=Send Me Some Lovin'
TTITLE11=Slippin' And Slidin'
TTITLE12=The Girl Can't Help It
TTITLE13=Babyface
EXTD=ID3G: 0
EXTT0=
EXTT1=
EXTT2=
EXTT3=
EXTT4=
EXTT5=
EXTT6=
EXTT7=
EXTT8=
EXTT9=
EXTT10=
EXTT11=
EXTT12=
EXTT13=
PLAYORDER=
